<svg version="1" xmlns="http://www.w3.org/2000/svg" width="565.333" height="565.333" viewBox="0 0 424.000000 424.000000"><path d="M194 31.6c-1.4.2-5.9.9-10 1.5-9.9 1.4-28.2 6.2-37.5 9.9-32.1 12.8-59 33.3-80.7 61.7-3.3 4.3-6.4 8.2-6.9 8.8-.6.6-9.4 1.2-20.2 1.5l-19.2.5-.5 2.5c-.3 1.4-1.4 3.8-2.5 5.5-2 2.9-2 4.8-2.3 94-.2 85.1-.1 91.2 1.5 94.4 3.5 6.8 5.6 7.5 23.1 8.1 11.3.4 16.3 1 18 2 1.3.8 4.8 4.9 7.9 9 7.6 10.2 25.9 28.3 36.3 35.9 23.6 17.5 48.4 28.3 78.5 34.3 14.9 3 47.7 3.2 63 .4 47.2-8.6 89.1-34.1 116.9-71 3.1-4.2 6.7-8.1 7.9-8.8 1.4-.8 8.2-1.5 18.4-1.8 18-.6 20.1-1.3 23.6-8.1 1.6-3.2 1.7-9.3 1.5-94.4-.3-89.2-.3-91.1-2.3-94-1.1-1.7-2.2-4.1-2.5-5.5l-.5-2.5-19.9-.5-20-.5-5.3-7C334.9 74.4 306.4 53 271.5 41c-20.1-6.9-32.9-9.1-55.5-9.5-10.7-.2-20.6-.2-22 .1zm118.2 77.1l4.8 4.7v20.5l-103.5.1H110v-20.4l4.7-4.8 4.7-4.8h188l4.8 4.7zm.8 40c0 .3-3 8.6-6.7 18.5l-6.6 17.8H127.3l-6.6-17.8c-3.7-9.9-6.7-18.2-6.7-18.5 0-.4 44.8-.7 99.5-.7s99.5.3 99.5.7zm-150 82v31.7l3.2 3.3 3.2 3.3h87l3.3-3.2 3.3-3.2V199h54v112H214.9c-87.1 0-102.3-.2-103.5-1.4-1.2-1.2-1.4-10.1-1.4-56V199h53v31.7zm85.5-3.7v27.5l-35.7.3-35.8.2v-56l35.8.2 35.7.3V227z"/></svg>